# xmcd
# Copyright (C) 1995-1998 Ti Kan
#
# Track frame offsets:
#       150
#       20196
#       36259
#       52488
#       68533
#       85486
#       108978
#       123720
#       139579
#       158106
#       173644
#       188599
#       206985
#       223576
#       240795
#       259830
#       275083
#       289154
#       303320
#       318533
#       334339
#
# Disc length: 4639 seconds
#
# Revision: 0
# Processed by: cddbd v1.5.2PL0 Copyright (c) Steve Scherf et al.
# Submitted via: CD-Transfer v1.0
#
DISCID=47121d15
DTITLE=Various Dome 44 - The Dome Vol. 44
DYEAR=07
DGENRE=
TTITLE0=Rihanna Don`t Stop The Music
TTITLE1=Alex C Feat. Y. Ass - Du Hast Den Schönsten Arsch Der Welt
TTITLE2=Jim Blue I'm Lovin It
TTITLE3=Sugababes About You Now
TTITLE4=Culcha Candela Ey Dj
TTITLE5=Kanye West Feat. Daft Punk Stronger
TTITLE6=Robyn With Cleerup With Every Heartbeat
TTITLE7=Peter, Björn And John Young Folks
TTITLE8=Kate Nash - Foundations
TTITLE9=Nelly Furtado Do It
TTITLE10=Lexington Bridge Real Man
TTITLE11=Sabrina Settlur I Think I Like It
TTITLE12=Monrose Strictly Physical
TTITLE13=Shaggy Feat. Rik Rok Bonafide Girl
TTITLE14=Mattafix Living Darfour
TTITLE15=Philip Cole Come Together
TTITLE16=Kate Ryan Voyage Voyage
TTITLE17=Groove Coverage Beacause I Lvoe You
TTITLE18=Global Deejay's Feat. Rozalla Everybody's Free
TTITLE19=The Disco Boys Start All Over Again
TTITLE20=Samim Heater
EXTD=
EXTT0=
EXTT1=
EXTT2=
EXTT3=
EXTT4=
EXTT5=
EXTT6=
EXTT7=
EXTT8=
EXTT9=
EXTT10=
EXTT11=
EXTT12=
EXTT13=
EXTT14=
EXTT15=
EXTT16=
EXTT17=
EXTT18=
EXTT19=
EXTT20=
PLAYORDER=
